<?xml version="1.0" encoding="UTF-8" standalone="no"?>
<svg width="388px" height="393px" viewBox="0 0 388 393" version="1.1" xmlns="http://www.w3.org/2000/svg" xmlns:xlink="http://www.w3.org/1999/xlink">
    <!-- Generator: Sketch 41.1 (35376) - http://www.bohemiancoding.com/sketch -->
    <title>bb1 copy</title>
    <desc>Created with Sketch.</desc>
    <defs></defs>
    <g id="Page-1" stroke="none" stroke-width="1" fill="none" fill-rule="evenodd">
        <g id="bb1-copy" transform="translate(-1.000000, 0.000000)">
            <g id="Group">
                <path d="M1.6866246,0.527876173 L1.6866246,288.360802 L1.6866246,328.745995 C1.6866246,363.93774 30.6308179,392.730986 66.0070542,392.730986 L93.4665176,392.730986 L388.606169,392.730986 L388.606169,0.527876173 L1.6866246,0.527876173 Z" id="Shape" fill="#3973D3"></path>
                <g transform="translate(39.306929, 67.539712)" id="Shape" fill="#FFFFFF">
                    <g transform="translate(5.360036, 88.868043)">
                        <path d="M0.707524726,0.129747342 L18.8047923,0.129747342 C31.8832796,0.129747342 37.6864117,6.78240901 37.6864117,18.8169193 C37.6864117,24.8830519 35.127888,31.242449 29.2282752,33.5903427 C35.4262633,36.3292558 39.0657276,41.2223302 39.0657276,50.3259725 C39.0657276,61.9676861 33.8521994,70.7727317 19.9840001,70.7727317 L0.707524726,70.7727317 L0.707524726,0.129747342 Z M12.9033929,29.090065 L17.3289957,29.090065 C21.95292,29.090065 25.4905436,25.9583552 25.4905436,20.0895097 C25.4905436,13.5346029 22.9355932,10.1114059 17.5237437,10.1114059 L12.9033929,10.1114059 L12.9033929,29.090065 L12.9033929,29.090065 Z M12.9033929,60.7946279 L18.0150803,60.7946279 C24.5060837,60.7946279 26.8680728,57.076389 26.8680728,49.9331757 C26.8680728,42.6957624 24.1148011,39.0699462 16.8358725,39.0699462 L12.9033929,39.0699462 L12.9033929,60.7946279 L12.9033929,60.7946279 Z"></path>
                        <path d="M47.4184501,0.129747342 L59.6143182,0.129747342 L59.6143182,53.4576823 C59.6143182,58.6422439 61.6797187,61.1856473 66.1053215,61.1856473 C70.5309244,61.1856473 72.5963249,58.6422439 72.5963249,53.4576823 L72.5963249,0.129747342 L84.792193,0.129747342 L84.792193,52.9671307 C84.792193,65.0993959 77.7115857,71.7520575 66.1053215,71.7520575 C54.4990574,71.7520575 47.4184501,65.0993959 47.4184501,52.9671307 L47.4184501,0.129747342 L47.4184501,0.129747342 Z"></path>
                        <polygon points="93.5397715 70.7727317 93.5397715 0.129747342 105.73564 0.129747342 105.73564 60.2063215 124.913848 60.2063215 124.913848 70.7727317"></polygon>
                        <polygon points="129.337664 70.7727317 129.337664 0.129747342 141.533532 0.129747342 141.533532 60.2063215 160.71174 60.2063215 160.71174 70.7727317"></polygon>
                        <polygon points="165.723374 70.7727317 165.723374 0.129747342 198.374925 0.129747342 198.374925 10.6961576 177.915668 10.6961576 177.915668 28.8945553 193.65452 28.8945553 193.65452 39.4609656 177.915668 39.4609656 177.915668 60.2045441 199.750668 60.2045441 199.750668 70.7709543 165.723374 70.7709543"></polygon>
                        <polygon points="214.004789 10.697935 202.203777 10.697935 202.203777 0.131524703 238.003456 0.131524703 238.003456 10.697935 226.202444 10.697935 226.202444 70.7745091 214.006576 70.7745091 214.006576 10.697935"></polygon>
                        <polygon points="244.392619 70.7727317 244.392619 0.129747342 256.588487 0.129747342 256.588487 70.7727317"></polygon>
                        <polygon points="267.601574 70.7727317 267.601574 0.129747342 278.91125 0.129747342 293.762122 40.5380463 293.95687 40.5380463 293.95687 0.129747342 304.97353 0.129747342 304.97353 70.7727317 294.351726 70.7727317 278.812982 26.6444165 278.614661 26.6444165 278.614661 70.7727317"></polygon>
                    </g>
                    <g>
                        <polygon points="13.1463811 12.2193558 1.34536899 12.2193558 1.34536899 1.65294559 37.1450481 1.65294559 37.1450481 12.2193558 25.344036 12.2193558 25.344036 72.2923752 13.1481678 72.2923752 13.1481678 12.2193558"></polygon>
                        <polygon points="41.8636663 72.2923752 41.8636663 1.65294559 54.0595344 1.65294559 54.0595344 30.419531 67.0415411 30.419531 67.0415411 1.65294559 79.2374093 1.65294559 79.2374093 72.2923752 67.0415411 72.2923752 67.0415411 40.9841639 54.0595344 40.9841639 54.0595344 72.2923752 41.8636663 72.2923752"></polygon>
                        <polygon points="88.5745916 72.2923752 88.5745916 1.65294559 121.226143 1.65294559 121.226143 12.2193558 100.77046 12.2193558 100.77046 30.4177536 116.505738 30.4177536 116.505738 40.9823865 100.77046 40.9823865 100.77046 61.725965 122.601886 61.725965 122.601886 72.2905979 88.5745916 72.2905979"></polygon>
                    </g>
                    <g transform="translate(5.360036, 174.181363)">
                        <path d="M0.707524726,1.46987742 L18.8047923,1.46987742 C31.8832796,1.46987742 37.6864117,8.12076173 37.6864117,20.1570494 C37.6864117,26.2214046 35.127888,32.5808018 29.2282752,34.9304728 C35.4262633,37.6693859 39.0657276,42.5624603 39.0657276,51.6625478 C39.0657276,63.3042614 33.8521994,72.1093071 19.9840001,72.1093071 L0.707524726,72.1093071 L0.707524726,1.46987742 Z M12.8998195,30.4284178 L17.3289957,30.4284178 C21.95292,30.4284178 25.4905436,27.2967079 25.4905436,21.4278624 C25.4905436,14.8729556 22.9320198,11.4497586 17.5237437,11.4497586 L12.8998195,11.4497586 L12.8998195,30.4284178 Z M12.8998195,62.1294259 L18.0150803,62.1294259 C24.5060837,62.1294259 26.8680728,58.411187 26.8680728,51.2679737 C26.8680728,44.0305604 24.1148011,40.4100763 16.8358725,40.4100763 L12.8998195,40.4100763 L12.8998195,62.1294259 Z"></path>
                        <path d="M59.6107448,72.1075297 L47.4184501,72.1075297 L47.4184501,1.46987742 L64.5312577,1.46987742 C78.2029224,1.46987742 85.1834756,7.24096811 85.1834756,22.3094334 C85.1834756,33.6578824 80.7614461,38.2576923 76.6270718,40.1150344 L86.9558608,72.1093071 L74.563458,72.1093071 L65.9052135,42.8557248 C64.3347231,43.0512345 61.7761993,43.1489894 59.6107448,43.1489894 L59.6107448,72.1075297 Z M59.6107448,33.1673308 L63.9416538,33.1673308 C70.5309244,33.1673308 72.9893942,30.7216823 72.9893942,22.3094334 C72.9893942,13.8954071 70.5291378,11.4497586 63.9416538,11.4497586 L59.6107448,11.4497586 L59.6107448,33.1673308 L59.6107448,33.1673308 Z"></path>
                        <polygon points="95.8017066 72.1075297 95.8017066 1.46987742 107.997575 1.46987742 107.997575 72.1075297"></polygon>
                        <polygon points="119.010662 72.1075297 119.010662 1.46987742 151.662213 1.46987742 151.662213 12.0345103 131.20653 12.0345103 131.20653 30.2329081 146.941808 30.2329081 146.941808 40.797541 131.20653 40.797541 131.20653 61.5411194 153.037956 61.5411194 153.037956 72.1057523 119.010662 72.1057523"></polygon>
                        <polygon points="160.213257 72.1075297 160.213257 1.46987742 194.244124 1.46987742 194.244124 12.0345103 172.409125 12.0345103 172.409125 30.2329081 188.734007 30.2329081 188.734007 40.797541 172.409125 40.797541 172.409125 72.1057523 160.213257 72.1057523"></polygon>
                    </g>
                </g>
            </g>
        </g>
    </g>
</svg>